<?xml version="1.0" encoding="utf-8"?>
<!-- Generator: Adobe Illustrator 16.0.0, SVG Export Plug-In . SVG Version: 6.00 Build 0)  -->
<!DOCTYPE svg PUBLIC "-//W3C//DTD SVG 1.1//EN" "http://www.w3.org/Graphics/SVG/1.1/DTD/svg11.dtd">
<svg version="1.1" id="Layer_1" xmlns="http://www.w3.org/2000/svg" xmlns:xlink="http://www.w3.org/1999/xlink" x="0px" y="0px"
	 width="130px" height="90px" viewBox="0 0 150 104" enable-background="new 0 0 150 104" xml:space="preserve">
<g id="Layer_1_1_">
</g>
<g id="Layer_9">
</g>
<g id="Layer_21">
	<rect x="0.484" y="0.516" fill="none" stroke="#8E2DE2" stroke-miterlimit="10" width="149.047" height="103.031"/>
</g>
<g id="Layer_19">
	<line fill="none" stroke="#8E2DE2" stroke-miterlimit="10" x1="0.047" y1="35.563" x2="130.922" y2="35.563"/>
	<line fill="none" stroke="#8E2DE2" stroke-miterlimit="10" x1="137.547" y1="35.563" x2="150.047" y2="35.563"/>
</g>
<g id="Layer_2">
</g>
<g id="Layer_8">
</g>
<g id="Layer_7">
</g>
<g id="Layer_3">
</g>
<g id="Layer_16">
</g>
<g id="Layer_22">
</g>
<g id="Layer_22_copy">
</g>
<g id="Layer_22_copy_2">
</g>
<rect x="1.031" y="1.095" fill="#EDE5F6" width="148.031" height="33.984"/>
<g>
	<path fill="#232323" stroke="#8E2DE2" stroke-width="1.5" stroke-miterlimit="10" d="M75.102,18.087H83.7H75.102z"/>
	<path fill="#232323" stroke="#8E2DE2" stroke-width="1.5" stroke-miterlimit="10" d="M87.518,18.087h8.6H87.518z"/>
	<path fill="#232323" stroke="#8E2DE2" stroke-width="1.5" stroke-miterlimit="10" d="M100.102,18.087h8.599H100.102z"/>
	<path fill="#232323" stroke="#8E2DE2" stroke-width="1.5" stroke-miterlimit="10" d="M112.395,18.087h8.599H112.395z"/>
</g>
<g id="Layer_16_copy">
</g>
<g id="Layer_16_copy_2">
</g>
<g id="Layer_6">
</g>
<g id="Layer_20">
</g>
<g id="Layer_6_copy">
</g>
<g id="Layer_13_copy">
</g>
<g id="Layer_3_copy">
</g>
<g id="Layer_3_copy_2">
</g>
<g id="Layer_10">
</g>
<g id="Layer_11">
</g>
<g id="Layer_12">
	<path fill="#FFFFFF" stroke="#8E2DE2" stroke-width="0.75" stroke-miterlimit="10" d="M3.75,21.125"/>
	
		<rect x="11.25" y="14.134" fill="#FFFFFF" stroke="#8E2DE2" stroke-width="0.75" stroke-miterlimit="10" width="22.125" height="8.035"/>
</g>
<g>
	<path fill="#FFFFFF" stroke="#8E2DE2" stroke-width="0.75" stroke-miterlimit="10" d="M138.051,21.074l-1.558-1.558
		c0.386-0.471,0.618-1.073,0.618-1.731c0-1.507-1.223-2.73-2.73-2.73c-1.509,0-2.73,1.224-2.73,2.73c0,1.508,1.222,2.731,2.73,2.731
		c0.657,0,1.259-0.231,1.729-0.618l1.559,1.557c0.105,0.105,0.275,0.105,0.382,0C138.156,21.351,138.156,21.179,138.051,21.074z
		 M134.381,19.973c-1.207,0-2.188-0.981-2.188-2.188c0-1.205,0.981-2.188,2.188-2.188s2.188,0.983,2.188,2.188
		C136.569,18.991,135.588,19.973,134.381,19.973z"/>
</g>
<path fill="#231F20" d="M-156.109,21.578"/>
</svg>
