<?xml version="1.0" encoding="utf-8"?>
<!-- Generator: Adobe Illustrator 16.0.0, SVG Export Plug-In . SVG Version: 6.00 Build 0)  -->
<!DOCTYPE svg PUBLIC "-//W3C//DTD SVG 1.1//EN" "http://www.w3.org/Graphics/SVG/1.1/DTD/svg11.dtd">
<svg version="1.1" id="Layer_1" xmlns="http://www.w3.org/2000/svg" xmlns:xlink="http://www.w3.org/1999/xlink" x="0px" y="0px"
	 width="130px" height="90px" viewBox="0 0 150 104" enable-background="new 0 0 150 104" xml:space="preserve">
<rect x="0.813" fill="#EDE5F6" width="149.046" height="46.313"/>
<g>
	<line fill="none" stroke="#8E2DE2" stroke-miterlimit="10" x1="0" y1="46.667" x2="130.326" y2="46.667"/>
	<line fill="none" stroke="#8E2DE2" stroke-miterlimit="10" x1="136.924" y1="46.667" x2="149.371" y2="46.667"/>
</g>
<g id="Layer_9">
</g>
<g id="Layer_21_copy">
</g>
<g id="Layer_21">
	<rect x="0.484" y="0.516" fill="none" stroke="#8E2DE2" stroke-miterlimit="10" width="149.047" height="103.031"/>
</g>
<g id="Layer_19">
</g>
<g id="Layer_2">
</g>
<g id="Layer_8">
</g>
<g id="Layer_7">
</g>
<g id="Layer_3">
</g>
<g id="Layer_16">
</g>
<g id="Layer_22">
</g>
<g id="Layer_22_copy">
</g>
<g id="Layer_22_copy_2">
</g>
<g id="Layer_16_copy">
</g>
<g id="Layer_16_copy_2">
</g>
<g id="Layer_6">
</g>
<g id="Layer_20">
</g>
<g id="Layer_6_copy">
</g>
<g id="Layer_13_copy">
</g>
<g id="Layer_3_copy">
</g>
<g id="Layer_3_copy_2">
</g>
<g id="Layer_10">
</g>
<g id="Layer_11">
</g>
<path fill="#231F20" d="M3.75,21.125"/>
<rect x="63.945" y="13.975" fill="#FFFFFF" stroke="#8E2DE2" stroke-width="0.75" stroke-miterlimit="10" width="22.125" height="8.035"/>
<g id="Layer_22_copy_3">
	<g>
		<path fill="#232323" stroke="#8E2DE2" stroke-width="1.5" stroke-miterlimit="10" d="M46.729,32.229h8.599H46.729z"/>
		<path fill="#232323" stroke="#8E2DE2" stroke-width="1.5" stroke-miterlimit="10" d="M59.146,32.229h8.599H59.146z"/>
		<path fill="#232323" stroke="#8E2DE2" stroke-width="1.5" stroke-miterlimit="10" d="M71.729,32.229h8.6H71.729z"/>
		<path fill="#232323" stroke="#8E2DE2" stroke-width="1.5" stroke-miterlimit="10" d="M84.021,32.229h8.598H84.021z"/>
	</g>
</g>
<g>
	<path fill="#FFFFFF" stroke="#8E2DE2" stroke-width="0.75" stroke-miterlimit="10" d="M103.051,35.074l-1.558-1.558
		c0.386-0.471,0.618-1.074,0.618-1.731c0-1.507-1.223-2.73-2.73-2.73c-1.509,0-2.73,1.224-2.73,2.73c0,1.508,1.222,2.731,2.73,2.731
		c0.657,0,1.259-0.231,1.729-0.618l1.559,1.557c0.105,0.106,0.275,0.106,0.382,0C103.156,35.351,103.156,35.179,103.051,35.074z
		 M99.381,33.973c-1.207,0-2.188-0.981-2.188-2.188c0-1.206,0.981-2.188,2.188-2.188s2.188,0.982,2.188,2.188
		C101.569,32.991,100.588,33.973,99.381,33.973z"/>
</g>
</svg>
